{
	"patcher" : 	{
		"fileversion" : 1,
		"appversion" : 		{
			"major" : 8,
			"minor" : 0,
			"revision" : 3,
			"architecture" : "x64",
			"modernui" : 1
		}
,
		"classnamespace" : "dsp.gen",
		"rect" : [ 939.0, 224.0, 510.0, 516.0 ],
		"bglocked" : 0,
		"openinpresentation" : 0,
		"default_fontsize" : 12.0,
		"default_fontface" : 0,
		"default_fontname" : "Arial",
		"gridonopen" : 1,
		"gridsize" : [ 15.0, 15.0 ],
		"gridsnaponopen" : 1,
		"objectsnaponopen" : 1,
		"statusbarvisible" : 2,
		"toolbarvisible" : 1,
		"lefttoolbarpinned" : 0,
		"toptoolbarpinned" : 0,
		"righttoolbarpinned" : 0,
		"bottomtoolbarpinned" : 0,
		"toolbars_unpinned_last_save" : 0,
		"tallnewobj" : 0,
		"boxanimatetime" : 200,
		"enablehscroll" : 1,
		"enablevscroll" : 1,
		"devicewidth" : 0.0,
		"description" : "",
		"digest" : "",
		"tags" : "",
		"style" : "",
		"subpatcher_template" : "",
		"boxes" : [ 			{
				"box" : 				{
					"id" : "obj-9",
					"maxclass" : "newobj",
					"numinlets" : 0,
					"numoutlets" : 1,
					"outlettype" : [ "" ],
					"patching_rect" : [ 457.333343505859375, 11.0, 28.0, 22.0 ],
					"text" : "in 4"
				}

			}
, 			{
				"box" : 				{
					"id" : "obj-8",
					"maxclass" : "newobj",
					"numinlets" : 1,
					"numoutlets" : 0,
					"patching_rect" : [ 457.333343505859375, 483.5, 35.0, 22.0 ],
					"text" : "out 4"
				}

			}
, 			{
				"box" : 				{
					"id" : "obj-3",
					"maxclass" : "newobj",
					"numinlets" : 1,
					"numoutlets" : 0,
					"patching_rect" : [ 309.555572509765625, 483.5, 35.0, 22.0 ],
					"text" : "out 3"
				}

			}
, 			{
				"box" : 				{
					"id" : "obj-7",
					"maxclass" : "newobj",
					"numinlets" : 1,
					"numoutlets" : 0,
					"patching_rect" : [ 161.777786254882813, 483.5, 35.0, 22.0 ],
					"text" : "out 2"
				}

			}
, 			{
				"box" : 				{
					"id" : "obj-6",
					"maxclass" : "newobj",
					"numinlets" : 0,
					"numoutlets" : 1,
					"outlettype" : [ "" ],
					"patching_rect" : [ 309.555572509765625, 11.0, 28.0, 22.0 ],
					"text" : "in 3"
				}

			}
, 			{
				"box" : 				{
					"code" : "Buffer viewersnaps(\"viewerdata\");\r\n\r\nParam numsources(128);\r\n\r\ni = in1;\r\nratio = in2;\r\nsnap1 = in3 - 1;\r\nsnap2 = in4 - 1;\r\n\r\n//get xyz coordinates at snapshot 1\r\nfromX = (snap1 * numsources * 3) + (i * 3);\r\nfromY = (snap1 * numsources * 3) + (i * 3) + 1;\r\nfromZ = (snap1 * numsources * 3) + (i * 3) + 2;\r\nfromXval = peek(viewersnaps, fromX, 0, channels=1);\r\nfromYval = peek(viewersnaps, fromY, 0, channels=1);\r\nfromZval = peek(viewersnaps, fromZ, 0, channels=1);\r\n//get xyz coordinates at snapshot 2\r\ntoX = (snap2 * numsources * 3) + (i * 3);\r\ntoY = (snap2 * numsources * 3) + (i * 3) + 1;\r\ntoZ = (snap2 * numsources * 3) + (i * 3) + 2;\r\ntoXval = peek(viewersnaps, toX, 0, channels=1);\r\ntoYval = peek(viewersnaps, toY, 0, channels=1);\r\ntoZval = peek(viewersnaps, toZ, 0, channels=1);\r\n//interpolate\r\nscaledX = scale(ratio, 0, 1, fromXval, toXval);\r\nscaledY = scale(ratio, 0, 1, fromYval, toYval);\r\nscaledZ = scale(ratio, 0, 1, fromZval, toZval);\r\n//output source-ID, X, Y, Z\r\nout1 = i + 1;\r\nout2 = scaledX;\r\nout3 = scaledY;\r\nout4 = scaledZ;",
					"fontface" : 0,
					"fontname" : "Lucida Console",
					"fontsize" : 12.0,
					"id" : "obj-5",
					"maxclass" : "codebox",
					"numinlets" : 4,
					"numoutlets" : 4,
					"outlettype" : [ "", "", "", "" ],
					"patching_rect" : [ 14.0, 40.0, 462.333343505859375, 435.0 ]
				}

			}
, 			{
				"box" : 				{
					"id" : "obj-1",
					"maxclass" : "newobj",
					"numinlets" : 0,
					"numoutlets" : 1,
					"outlettype" : [ "" ],
					"patching_rect" : [ 14.0, 11.0, 28.0, 22.0 ],
					"text" : "in 1"
				}

			}
, 			{
				"box" : 				{
					"id" : "obj-2",
					"maxclass" : "newobj",
					"numinlets" : 0,
					"numoutlets" : 1,
					"outlettype" : [ "" ],
					"patching_rect" : [ 161.777786254882813, 11.0, 28.0, 22.0 ],
					"text" : "in 2"
				}

			}
, 			{
				"box" : 				{
					"id" : "obj-4",
					"maxclass" : "newobj",
					"numinlets" : 1,
					"numoutlets" : 0,
					"patching_rect" : [ 14.0, 483.5, 35.0, 22.0 ],
					"text" : "out 1"
				}

			}
 ],
		"lines" : [ 			{
				"patchline" : 				{
					"destination" : [ "obj-5", 0 ],
					"source" : [ "obj-1", 0 ]
				}

			}
, 			{
				"patchline" : 				{
					"destination" : [ "obj-5", 1 ],
					"source" : [ "obj-2", 0 ]
				}

			}
, 			{
				"patchline" : 				{
					"destination" : [ "obj-3", 0 ],
					"source" : [ "obj-5", 2 ]
				}

			}
, 			{
				"patchline" : 				{
					"destination" : [ "obj-4", 0 ],
					"source" : [ "obj-5", 0 ]
				}

			}
, 			{
				"patchline" : 				{
					"destination" : [ "obj-7", 0 ],
					"source" : [ "obj-5", 1 ]
				}

			}
, 			{
				"patchline" : 				{
					"destination" : [ "obj-8", 0 ],
					"source" : [ "obj-5", 3 ]
				}

			}
, 			{
				"patchline" : 				{
					"destination" : [ "obj-5", 2 ],
					"source" : [ "obj-6", 0 ]
				}

			}
, 			{
				"patchline" : 				{
					"destination" : [ "obj-5", 3 ],
					"source" : [ "obj-9", 0 ]
				}

			}
 ],
		"autosave" : 0
	}

}
